
<svg xmlns="http://www.w3.org/2000/svg" data-name="Layer 1" width="693.37" height="617.99" viewBox="0 0 693.37 617.99" xmlns:xlink="http://www.w3.org/1999/xlink"><path d="M467.86,166.71H132.56a16.51,16.51,0,0,0-16.5,16.5V551.48a16.51,16.51,0,0,0,16.5,16.5H467.86a16.51,16.51,0,0,0,16.5-16.5V183.21A16.51,16.51,0,0,0,467.86,166.71Z" transform="translate(-253.31 -141)" fill="#fff"/><path d="M467.86,166.71H132.56a16.51,16.51,0,0,0-16.5,16.5V551.48a16.51,16.51,0,0,0,16.5,16.5H467.86a16.51,16.51,0,0,0,16.5-16.5V183.21A16.51,16.51,0,0,0,467.86,166.71Zm14,384.77a14,14,0,0,1-14,14H132.56a14,14,0,0,1-14-14V183.21a14,14,0,0,1,14-14H467.86a14,14,0,0,1,14,14Z" transform="translate(-253.31 -141)" fill="#3f3d56"/><path d="M824.66,258.71H657.36a16.51,16.51,0,0,0-16.5,16.5V444.48a16.51,16.51,0,0,0,16.5,16.5h167.3a16.51,16.51,0,0,0,16.5-16.5V275.21A16.51,16.51,0,0,0,824.66,258.71Z" transform="translate(-253.31 -141)" fill="#fff"/><path d="M824.66,258.71H657.36a16.51,16.51,0,0,0-16.5,16.5V444.48a16.51,16.51,0,0,0,16.5,16.5h167.3a16.51,16.51,0,0,0,16.5-16.5V275.21A16.51,16.51,0,0,0,824.66,258.71Zm14,185.77a14,14,0,0,1-14,14H657.36a14,14,0,0,1-14-14V275.21a14,14,0,0,1,14-14h167.3a14,14,0,0,1,14,14Z" transform="translate(-253.31 -141)" fill="#3f3d56"/><path d="M333.84,329h-67a9,9,0,0,1,0-18h67a9,9,0,0,1,0,18Z" transform="translate(-253.31 -141)" fill="#046fdf"/><path d="M415.84,392h-149a9,9,0,0,1,0-18h149a9,9,0,0,1,0,18Z" transform="translate(-253.31 -141)" fill="#ccc"/><path d="M415.84,424h-149a9,9,0,0,1,0-18h149a9,9,0,0,1,0,18Z" transform="translate(-253.31 -141)" fill="#ccc"/><path d="M415.84,456h-149a9,9,0,0,1,0-18h149a9,9,0,0,1,0,18Z" transform="translate(-253.31 -141)" fill="#ccc"/><path d="M415.84,488h-149a9,9,0,0,1,0-18h149a9,9,0,0,1,0,18Z" transform="translate(-253.31 -141)" fill="#ccc"/><path d="M684.21,326h-67a9,9,0,0,1,0-18h67a9,9,0,0,1,0,18Z" transform="translate(-253.31 -141)" fill="#046fdf"/><circle cx="67.53" cy="189" r="35" fill="#046fdf"/><circle cx="427.03" cy="183" r="35" fill="#046fdf"/><rect x="92.32" y="516.5" width="93.72" height="26.94" fill="#3f3d56"/><rect x="92.32" y="516.5" width="93.72" height="26.94" fill="#3f3d56"/><rect x="92.32" y="516.5" width="93.72" height="26.94" fill="#3f3d56"/><rect x="92.32" y="516.5" width="93.72" height="26.94" fill="#3f3d56"/><path d="M386.66,655a6.72,6.72,0,0,0-6.72,6.72v20.79a6.72,6.72,0,0,0,6.72,6.72h93.72a6.72,6.72,0,0,0,6.72-6.72V661.74a6.72,6.72,0,0,0-6.72-6.72Z" transform="translate(-253.31 -141)" fill="#3f3d56"/><path d="M679.07,676.5v4A10,10,0,0,1,669.06,691H310.58a10,10,0,0,1-10-10.51v-4Z" transform="translate(-253.31 -141)" fill="#3f3d56"/><path d="M311.13,690c-.26,0-.52,0-.78-.05a11,11,0,0,1-10.26-11.35l.06-3.6h378.84l.07,4.48A11,11,0,0,1,667.96,690Zm-9-13,.06,1.68A9,9,0,0,0,311,688a8.79,8.79,0,0,0,1.57.14H669.06a9,9,0,0,0,9-8.55l.02-1.58Z" transform="translate(-253.31 -141)" fill="#ccc"/><path d="M462.37,654H360.22a10,10,0,0,1-10-10V594.9a10,10,0,0,1,10-10H462.37a10,10,0,0,1,10,10V644A10,10,0,0,1,462.37,654Z" transform="translate(-253.31 -141)" fill="#046fdf"/><path d="M898.69,759H254.31a1,1,0,0,1,0-2H898.69a1,1,0,0,1,0,2Z" transform="translate(-253.31 -141)" fill="#ccc"/><path d="M807.06,399.5c0,10.5-10.5,10.5-21,10.5s-21,0-21-10.5c.31,10.5-10.5,10.5-21,10.5s-21,0-21-10.5c0,10.5-10.5,10.5-21,10.5s-21,0-21-10.5v126H807.06Z" transform="translate(-253.31 -141)" fill="#046fdf"/><circle cx="532.75" cy="195" r="31.5" fill="#2f2e41"/><path d="M831.94,361.86c-6.54,0-12.19-1.69-16.83-5.02a23.4,23.4,0,0,1-10.24-19.16c0-6.7,2.25-14.07,7.09-23.22,10.34-19.61,26.38-32.15,48.66-38.03l.67-.18V219.81c0-23.37-11.73-43.04-35.49-59.32-8.57-5.89-16.09-10.03-16.33-10.16a1.5,1.5,0,0,1,1.39-2.66h.01c.23.12,7.89,4.34,16.62,10.33,24.86,17.09,37.3,37.92,37.3,62.65v57.59c0,.71-.5,1.33-1.19,1.48-24.37,5.21-41.78,18.17-52.33,38.79-4.55,8.62-6.67,15.44-6.67,21.51a20.26,20.26,0,0,0,9.03,16.69c6.99,5.05,17.21,5.94,29.55,2.57a99.48,99.48,0,0,0,32.6-16.16,1.5,1.5,0,0,1,1.73,2.45,101.59,101.59,0,0,1-33.44,16.59A53.45,53.45,0,0,1,831.94,361.86Z" transform="translate(-253.31 -141)" fill="#2f2e41"/><path d="M837.75,407H801.38a1.5,1.5,0,0,1,0-3h36.37a1.5,1.5,0,0,1,0,3Z" transform="translate(-253.31 -141)" fill="#2f2e41"/><path d="M795.38,407H759a1.5,1.5,0,0,1,0-3h36.38a1.5,1.5,0,0,1,0,3Z" transform="translate(-253.31 -141)" fill="#2f2e41"/><path d="M837.75,423H801.38a1.5,1.5,0,0,1,0-3h36.37a1.5,1.5,0,0,1,0,3Z" transform="translate(-253.31 -141)" fill="#2f2e41"/><path d="M795.38,423H759a1.5,1.5,0,0,1,0-3h36.38a1.5,1.5,0,0,1,0,3Z" transform="translate(-253.31 -141)" fill="#2f2e41"/><path d="M837.75,439H801.38a1.5,1.5,0,0,1,0-3h36.37a1.5,1.5,0,0,1,0,3Z" transform="translate(-253.31 -141)" fill="#2f2e41"/><path d="M795.38,439H759a1.5,1.5,0,0,1,0-3h36.38a1.5,1.5,0,0,1,0,3Z" transform="translate(-253.31 -141)" fill="#2f2e41"/><path d="M837.75,455H801.38a1.5,1.5,0,0,1,0-3h36.37a1.5,1.5,0,0,1,0,3Z" transform="translate(-253.31 -141)" fill="#2f2e41"/><path d="M795.38,455H759a1.5,1.5,0,0,1,0-3h36.38a1.5,1.5,0,0,1,0,3Z" transform="translate(-253.31 -141)" fill="#2f2e41"/><path d="M837.75,471H801.38a1.5,1.5,0,0,1,0-3h36.37a1.5,1.5,0,0,1,0,3Z" transform="translate(-253.31 -141)" fill="#2f2e41"/><path d="M795.38,471H759a1.5,1.5,0,0,1,0-3h36.38a1.5,1.5,0,0,1,0,3Z" transform="translate(-253.31 -141)" fill="#2f2e41"/><path d="M837.75,487H801.38a1.5,1.5,0,0,1,0-3h36.37a1.5,1.5,0,0,1,0,3Z" transform="translate(-253.31 -141)" fill="#2f2e41"/><path d="M795.38,487H759a1.5,1.5,0,0,1,0-3h36.38a1.5,1.5,0,0,1,0,3Z" transform="translate(-253.31 -141)" fill="#2f2e41"/><circle cx="521.49" cy="206.21" r="2" fill="#2f2e41"/><circle cx="521.49" cy="224.6" r="2" fill="#2f2e41"/><circle cx="521.49" cy="242.99" r="2" fill="#2f2e41"/><circle cx="521.49" cy="261.38" r="2" fill="#2f2e41"/><circle cx="521.49" cy="279.77" r="2" fill="#2f2e41"/><circle cx="521.49" cy="298.16" r="2" fill="#2f2e41"/><path d="M787.26,278.32l3.15,17.78L795,319.83l-3.2.85-3.71-14.52-4.35-18.6-1.49-17.28,4.49-1.02A6.06,6.06,0,0,1,787.26,278.32Z" transform="translate(-253.31 -141)" fill="#2f2e41"/><path d="M773.14,318.79l30.75-8.23,1.69,6.3-30.75,8.23Z" transform="translate(-253.31 -141)" fill="#2f2e41"/><path d="M787.77,269.26l7.51-1.7,2.4,10.59-7.51,1.7Z" transform="translate(-253.31 -141)" fill="#2f2e41"/><path d="M788.45,271.82l3.71,2.37-9.44,14.79-3.71-2.37Z" transform="translate(-253.31 -141)" fill="#2f2e41"/><path d="M401,350.5H349a11,11,0,0,1,0-22h52a11,11,0,0,1,0,22Z" transform="translate(-253.31 -141)" fill="#046fdf"/><path d="M751,350.5H699a11,11,0,0,1,0-22h52a11,11,0,0,1,0,22Z" transform="translate(-253.31 -141)" fill="#046fdf"/><circle cx="452.22" cy="341.26" r="37.32" fill="#fff"/><circle cx="452.22" cy="341.26" r="32.32" fill="#046fdf"/><path d="M721.08,486.32a16.5,16.5,0,0,1-16.5-16.5c0-9.09,15.09-32.09,16.5-34.11,1.41,2.02,16.5,25.02,16.5,34.11A16.5,16.5,0,0,1,721.08,486.32Zm0-45.62c-3.5,5.23-13.5,21.55-13.5,29.12a13.5,13.5,0,0,0,27,0C734.58,461.93,724.6,445.72,721.08,440.7Z" transform="translate(-253.31 -141)" fill="#fff"/><path d="M721.08,468.32a7.9,7.9,0,0,1-5.59-2.31,7.85,7.85,0,0,1-2.31-5.59,7.92,7.92,0,0,1,13.5-5.59,7.92,7.92,0,0,1,0,11.18A7.9,7.9,0,0,1,721.08,468.32Zm0-13a5,5,0,0,0-5,5,5,5,0,0,0,8.54,3.54,5,5,0,0,0,0-7.07A5,5,0,0,0,721.08,455.32Z" transform="translate(-253.31 -141)" fill="#fff"/><circle cx="173.69" cy="318" r="44" fill="#fff"/><circle cx="173.69" cy="318" r="40" fill="#046fdf"/><path d="M392.19,416a11.5,11.5,0,0,1-7.07-2.43l-16.17-12.68a3.99,3.99,0,0,1,.49-6.65l2.96-1.7a3.99,3.99,0,0,1,5.22,1.08L389,405.5l20.85-37.55a4,4,0,0,1,5.13-1.69l2.98,1.23a4,4,0,0,1,1.99,5.6l-20.55,40.92a11.5,11.5,0,0,1-7.1,6.08A11.67,11.67,0,0,1,392.19,416Z" transform="translate(-253.31 -141)" fill="#fff"/></svg>
