
<svg id="feb2629a-3172-4d61-9f0d-8b7e1d66a87c" xmlns="http://www.w3.org/2000/svg" width="519.76" height="416.9" viewBox="0 0 919.76 416.9"><path d="M965.76,657.45H364.24a4.82,4.82,0,0,1-4.81-4.82V417.55a4.82,4.82,0,0,1,4.81-4.82H965.76a4.82,4.82,0,0,1,4.81,4.82v235.1a4.81,4.81,0,0,1-4.81,4.8ZM364.24,415.73a1.83,1.83,0,0,0-1.81,1.82v235.1a1.82,1.82,0,0,0,1.81,1.8H965.76a1.82,1.82,0,0,0,1.81-1.8V417.55a1.83,1.83,0,0,0-1.81-1.82Z" transform="translate(-140.12 -241.55)" fill="#3f3d56"/><circle cx="703.31" cy="115.49" r="19.73" fill="#046fdf"/><path d="M865.32,391.38H838.59a2.47,2.47,0,0,1,0-4.93h26.73a2.47,2.47,0,0,1,0,4.93Z" transform="translate(-140.12 -241.55)" fill="#f2f2f2"/><path d="M865.32,399.57H838.59a2.46,2.46,0,0,1,0-4.92h26.73a2.46,2.46,0,0,1,0,4.92Z" transform="translate(-140.12 -241.55)" fill="#f2f2f2"/><path d="M865.32,407.77H838.59a2.47,2.47,0,0,1,0-4.93h26.73a2.47,2.47,0,0,1,0,4.93Z" transform="translate(-140.12 -241.55)" fill="#f2f2f2"/><rect x="364.37" y="181.88" width="129.1" height="5.65" fill="#f2f2f2"/><rect x="364.37" y="233.75" width="129.1" height="5.65" fill="#f2f2f2"/><rect x="364.37" y="285.62" width="129.1" height="5.65" fill="#f2f2f2"/><rect x="364.37" y="337.5" width="129.1" height="5.65" fill="#f2f2f2"/><rect x="364.37" y="198.52" width="458.05" height="5.65" fill="#f2f2f2"/><rect x="364.37" y="250.39" width="458.05" height="5.65" fill="#f2f2f2"/><rect x="364.37" y="302.26" width="458.05" height="5.65" fill="#f2f2f2"/><rect x="364.37" y="354.14" width="458.05" height="5.65" fill="#f2f2f2"/><path d="M797.24,394.7v1.14l-.7-.05-36.76-2.61-31.6-2.24-33.57-2.38-.05-.04a.7.7,0,0,0-.11-.05h-.09q-.14-.34.6.24a1.1,1.1,0,0,0-.11-.05l-.27-.11-.5-.19-.66-.26-.65-.25a10.39,10.39,0,0,1-1-.43h-.05a17.16,17.16,0,0,1-5.15-3.52l30.54,3.17,46.46,4.81Z" transform="translate(-140.12 -241.55)" fill="#f2f2f2"/><path d="M758.72,391.51l-19.62-16.8L701.78,342.5a9.76,9.76,0,0,0-10.3-2.1l-141.92,48.32a9.74,9.74,0,0,0-6.1,10.95c0,.09.05.18.08.28a9.73,9.73,0,0,0,3.49,5.15,10.2,10.2,0,0,0,1.27.87,9.68,9.68,0,0,0,4.43,1.16,9.15,9.15,0,0,0,3.18-.56l122.74-47.65,36.6,25.6-24.79,15.73Z" transform="translate(-140.12 -241.55)" fill="#f2f2f2"/><path d="M744.2,392.13l-36.76-2.61-31.6-2.24,35.11-24.35a3.75,3.75,0,0,1,5.19.82h0a3.74,3.74,0,0,1-.24,4.83Z" transform="translate(-140.12 -241.55)" fill="#f2f2f2"/><path d="M797.24,394.7v1.14l-33.04-2.57-36.76-2.61-.74-.05,67.59-44.47.48-.33a4.276,4,0,0,1,.65,2.22,4.195,4.074,0,0,1-.42,1.83Z" transform="translate(-140.12 -241.55)" fill="#f2f2f2"/><path d="M618.06,404.62H532.87a2.22,2.22,0,0,1,0-4.43h85.19a2.22,2.22,0,0,1,0,4.43Z" transform="translate(-140.12 -241.55)" fill="#046fdf"/><path d="M619.71,396.72H531.22a1.8,1.8,0,0,1-1.8-1.8V380a1.8,1.8,0,0,1,1.8-1.8h88.49a1.79,1.79,0,0,1,1.79,1.8v14.92A1.79,1.79,0,0,1,619.71,396.72Z" transform="translate(-140.12 -241.55)" fill="#046fdf"/><path d="M336.18,511.3a15.73,15.73,0,0,1,20.11-8.56l24.86-32.51L372,484.14,349.54,513.6a15.8,15.8,0,0,1-13.36-2.3Z" transform="translate(-140.12 -241.55)" fill="#ffb8b8"/><path d="M491.16,507.82s7,17.71-38,10l-82.86-93.68a31.31,31.31,0,0,1-6.54-26.34l.7-3.13L356,376s-28.8,10.25-25.95,24.58c1.74,8.69-3.5,14.19-10.43,17.71a34.8,34.8,0,0,0-11.82,9C293.34,445.31,292.59,459,301.93,468l102.13,104Z" transform="translate(-140.12 -241.55)" fill="#2f2e41"/><path d="M358.67,415.57l-38.3,3.78a11.28,11.28,0,0,0,.39,22.56l47.66-.61Z" transform="translate(-140.12 -241.55)" fill="#ffb8b8"/><polygon points="307.88 396.35 330.86 416.14 346.24 372.63 323.26 352.83 307.88 396.35" fill="#ffb8b8"/><path d="M433.14,656.7H472.3a0,0,0,0,1,0,0V671a0,0,0,0,1,0,0H448.43a15.28,15.28,0,0,1-15.28-15.28v0A0,0,0,0,1,433.14,656.7Z" transform="translate(765.32 1086.15) rotate(-180)" fill="#2f2e41"/><path d="M318.89,656.7h39.16a0,0,0,0,1,0,0V671a0,0,0,0,1,0,0H334.18a15.28,15.28,0,0,1-15.28-15.28v0A0,0,0,0,1,318.89,656.7Z" transform="translate(536.83 1086.15) rotate(-180)" fill="#2f2e41"/><path d="M443.35,440.8l-21-6-12.52,15.59,25.7,94.83s-5.13,47.56-13.54,75.7c0,0-21,9.7-28.59,0,0,0,16.68-76.5,9.27-97.55l-26.09-77s-4.1,41.49-5.93,73.4c0,0-5.47,28.4-18.72,38.39,0,0-21.08,9.7-28.5,0,0,0,17.31-112.66,29-113.91l3-14.25,21.4-75.55s-3.72-14.93-3.72-23.41l-13.27-11,12.89-32.45,2.49-6.24a39.15,39.15,0,0,1,35.38-24.54h29.94A39.15,39.15,0,0,1,451.18,268l2.44,5.6,13.82,31.82s14.46,16.51,4.77,32.26l-21.66,69.46,9.15,20.18Z" transform="translate(-140.12 -241.55)" fill="#2f2e41"/><path d="M434,413.59l38-3.78a11.28,11.28,0,0,1-.38,22.56l-47.67-.61Z" transform="translate(-140.12 -241.55)" fill="#ffb8b8"/><path d="M456.46,511.3a15.73,15.73,0,0,0-20.11-8.56l-24.86-32.51,9.17,13.91,22.42,29.46a15.8,15.8,0,0,0,13.38-2.3Z" transform="translate(-140.12 -241.55)" fill="#ffb8b8"/><path d="M308,507.82s-7,17.71,38,10l82.86-93.68a31.31,31.31,0,0,0,6.54-26.34l-.7-3.13-8.49-18.71s28.8,10.25,25.95,24.58c-1.74,8.69,3.5,14.19,10.43,17.71a34.77,34.77,0,0,1,11.83,9c14.41,18.05,15.16,31.71,5.82,40.74l-102.13,104Z" transform="translate(-140.12 -241.55)" fill="#2f2e41"/><circle cx="374.26" cy="45.54" r="28.11" fill="#ffb8b8"/><path d="M537.19,313.45a43.18,43.18,0,0,0-21.05-28.8,42.71,42.71,0,0,0-33.32-3.87c-7.34,2.24-14.11,6.79-19.94,12.19-4.78,4.44-9.17,9.53-14.86,12.74a26.91,26.91,0,0,1-14.91,3.78,27.35,27.35,0,0,1-14.09-5.41,41.52,41.52,0,0,1-16.69-33.94,24.8,24.8,0,0,0-12,11.71,25.6,25.6,0,0,0-1.8,12.89c.58,4.56,2.07,9.05,1.75,13.64a35,35,0,0,1-1.89,8.21l-.53,1.75c-.67,2.25-1.34,4.49-2,6.74-1.58,5.27-3.18,10.7-3,16.16.29,9.5,5.49,18.23,9.28,26.95,1.11,2.57,2.06,5.19,3,7.82,15.78-7.89,32.71-13,49.78-18.12l-3.61-13.07c-.9-3.25-1.8-6.62-1.41-10,.42-3.53,2.2-6.68,4.17-9.63,1.25-1.86,2.59-3.79,4.53-4.84a15.58,15.58,0,0,1,3.48-1.23,61.1,61.1,0,0,1,12.19-1.5,29.77,29.77,0,0,0,5.12-.28,25.27,25.27,0,0,0,6.66-2.31,13.12,13.12,0,0,1,3.8-1.29c2.38-.24,4.53,1.11,6.71,2,5.32,2.35,11.54,1.58,16.57-1.29s8.92-7.67,12.22-12.57" transform="translate(-140.12 -241.55)" fill="#2f2e41"/><polygon points="369.45 416.14 392.43 396.35 377.05 352.83 354.07 372.63 369.45 416.14" fill="#ffb8b8"/><path d="M187.85,503.09a9.12,9.12,0,0,0,7.7-13.94h0c-.1-.15-.19-.31-.3-.46h0a9.12,9.12,0,0,0-7.4,15.12c.12.13.25.25.38.37-.13-.11-.26-.24-.38-.37a5.28,5.28,0,0,0,.38.37Z" transform="translate(-140.12 -241.55)" fill="#ccc"/><path d="M223.69,493.18a9.12,9.12,0,0,0,10.55-12.06h0c-.07-.17-.15-.33-.24-.5h0a9.12,9.12,0,0,0-10.88,13c.09.16.18.31.28.46l-.29-.46a5.28,5.28,0,0,0,.29.46Z" transform="translate(-140.12 -241.55)" fill="#ccc"/><path d="M261.34,493.18A9.12,9.12,0,0,0,271.89,481.12h0l-.24-.5h0A9.12,9.12,0,0,0,260.77,493.64q.14.24.29.46l-.29-.46c.09.16.19.31.29.46Z" transform="translate(-140.12 -241.55)" fill="#ccc"/><path d="M223.69,559.48a9.12,9.12,0,0,0,10.55-12.06h0c-.07-.17-.15-.33-.24-.5h0a9.12,9.12,0,0,0-10.88,13c.09.16.18.31.28.46l-.29-.46a5.28,5.28,0,0,0,.29.46Z" transform="translate(-140.12 -241.55)" fill="#ccc"/><path d="M261.34,559.48A9.12,9.12,0,0,0,271.89,547.42h0l-.24-.5h0A9.12,9.12,0,0,0,260.77,559.94q.14.24.29.46l-.29-.46c.09.16.19.31.29.46Z" transform="translate(-140.12 -241.55)" fill="#ccc"/><path d="M187.85,569.39a9.12,9.12,0,0,0,7.7-13.94h0c-.1-.15-.19-.31-.3-.46h0a9.12,9.12,0,0,0-7.4,15.12c.12.13.25.25.38.37-.13-.11-.26-.24-.38-.37a5.28,5.28,0,0,0,.38.37Z" transform="translate(-140.12 -241.55)" fill="#046fdf"/><path d="M223.69,569.39a9.12,9.12,0,0,0,10.55-12.06h0c-.07-.17-.15-.33-.24-.5h0a9.12,9.12,0,0,0-10.88,13c.09.16.18.31.28.46l-.29-.46a5.28,5.28,0,0,0,.29.46Z" transform="translate(-140.12 -241.55)" fill="#046fdf"/><path d="M261.34,569.39A9.12,9.12,0,0,0,271.89,557.33h0l-.24-.5h0A9.12,9.12,0,0,0,260.77,569.85c.09.16.19.31.29.46l-.29-.46c.09.16.19.31.29.46Z" transform="translate(-140.12 -241.55)" fill="#046fdf"/><path d="M299,569.39a9.12,9.12,0,0,0,10.55-12.06h0c-.07-.17-.15-.33-.24-.5h0a9.12,9.12,0,0,0-10.88,13c.09.16.18.31.28.46l-.29-.46a5.28,5.28,0,0,0,.29.46Z" transform="translate(-140.12 -241.55)" fill="#046fdf"/><path d="M187.85,525.29a9.12,9.12,0,0,0,7.7-13.94h0c-.1-.15-.19-.31-.3-.46h0a9.12,9.12,0,0,0-7.4,15.12c.12.13.25.25.38.37-.13-.11-.26-.24-.38-.37a5.28,5.28,0,0,0,.38.37Z" transform="translate(-140.12 -241.55)" fill="#ccc"/><path d="M223.69,525.29a9.12,9.12,0,0,0,10.55-12.06h0c-.07-.17-.15-.33-.24-.5h0a9.12,9.12,0,0,0-10.88,13c.09.16.18.31.28.46l-.29-.46a5.28,5.28,0,0,0,.29.46Z" transform="translate(-140.12 -241.55)" fill="#ccc"/><path d="M261.34,525.29A9.12,9.12,0,0,0,271.89,513.23h0l-.24-.5h0A9.12,9.12,0,0,0,260.77,525.75c.09.16.19.31.29.46l-.29-.46c.09.16.19.31.29.46Z" transform="translate(-140.12 -241.55)" fill="#ccc"/><path d="M299,525.29a9.12,9.12,0,0,0,10.55-12.06h0c-.07-.17-.15-.33-.24-.5h0a9.12,9.12,0,0,0-10.88,13c.09.16.18.31.28.46l-.29-.46a5.28,5.28,0,0,0,.29.46Z" transform="translate(-140.12 -241.55)" fill="#ccc"/><path d="M187.85,547.59a9.12,9.12,0,0,0,7.7-13.94h0c-.1-.15-.19-.31-.3-.46h0a9.12,9.12,0,0,0-7.4,15.12c.12.13.25.25.38.37-.13-.11-.26-.24-.38-.37a5.28,5.28,0,0,0,.38.37Z" transform="translate(-140.12 -241.55)" fill="#ccc"/><path d="M299,493.18a9.12,9.12,0,0,0,10.55-12.06h0c-.07-.17-.15-.33-.24-.5h0a9.12,9.12,0,0,0-10.88,13c.09.16.18.31.28.46l-.29-.46a5.28,5.28,0,0,0,.29.46Z" transform="translate(-140.12 -241.55)" fill="#ccc"/><path d="M299,547.59a9.12,9.12,0,0,0,10.55-12.06h0c-.07-.17-.15-.33-.24-.5h0a9.12,9.12,0,0,0-10.88,13c.09.16.18.31.28.46l-.29-.46a5.28,5.28,0,0,0,.29.46Z" transform="translate(-140.12 -241.55)" fill="#ccc"/><path d="M977.07,637.74a10.05,10.05,0,0,1,15,13.31h0a10.05,10.05,0,1,1-15-13.31Z" transform="translate(-140.12 -241.55)" fill="#046fdf"/><path d="M994.66,651.05a10.05,10.05,0,0,0-17.59-13.31h0a10.05,10.05,0,0,0,18.24,12.15h0c-.21.4-.43.78-.65,1.16Z" transform="translate(-140.12 -241.55)" fill="#046fdf"/><path d="M140.12,658.44a.5.5,0,0,1-.5-.5V305.06a.5.5,0,0,1,1,0V657.94A.5.5,0,0,1,140.12,658.44Z" transform="translate(-140.12 -241.55)" fill="#3f3d56"/><path d="M288.66,658.44a.5.5,0,0,1-.5-.5V305.06a.5.5,0,0,1,1,0V657.94A.5.5,0,0,1,288.66,658.44Z" transform="translate(-140.12 -241.55)" fill="#3f3d56"/><path d="M140.12,313.9a.5.5,0,0,1-.5-.5.5.5,0,0,1,.5-.5h148.2a.5.5,0,0,1,.5.5.5.5,0,0,1-.5.5Z" transform="translate(-140.12 -241.55)" fill="#3f3d56"/><path d="M140.12,342.61a.5.5,0,0,1-.5-.5.5.5,0,0,1,.5-.5h148.2a.5.5,0,0,1,.5.5.5.5,0,0,1-.5.5Z" transform="translate(-140.12 -241.55)" fill="#3f3d56"/><path d="M140.12,371.31a.5.5,0,0,1-.5-.5.5.5,0,0,1,.5-.5h148.2a.5.5,0,0,1,.5.5.5.5,0,0,1-.5.5Z" transform="translate(-140.12 -241.55)" fill="#3f3d56"/><path d="M140.12,400.02a.5.5,0,0,1-.5-.5.5.5,0,0,1,.5-.5h148.2a.5.5,0,0,1,.5.5.5.5,0,0,1-.5.5Z" transform="translate(-140.12 -241.55)" fill="#3f3d56"/><path d="M140.12,428.73a.5.5,0,0,1-.5-.5.5.5,0,0,1,.5-.5h148.2a.5.5,0,0,1,.5.5.5.5,0,0,1-.5.5Z" transform="translate(-140.12 -241.55)" fill="#3f3d56"/><path d="M140.12,457.44a.5.5,0,0,1-.5-.5.5.5,0,0,1,.5-.5h148.2a.5.5,0,0,1,.5.5.5.5,0,0,1-.5.5Z" transform="translate(-140.12 -241.55)" fill="#3f3d56"/><path d="M140.12,486.15a.5.5,0,0,1-.5-.5.5.5,0,0,1,.5-.5h148.2a.5.5,0,0,1,.5.5.5.5,0,0,1-.5.5Z" transform="translate(-140.12 -241.55)" fill="#3f3d56"/><path d="M140.12,514.86a.5.5,0,0,1-.5-.5.5.5,0,0,1,.5-.5h148.2a.5.5,0,0,1,.5.5.5.5,0,0,1-.5.5Z" transform="translate(-140.12 -241.55)" fill="#3f3d56"/><path d="M140.12,543.56a.5.5,0,0,1-.5-.5.5.5,0,0,1,.5-.5h148.2a.5.5,0,0,1,.5.5.5.5,0,0,1-.5.5Z" transform="translate(-140.12 -241.55)" fill="#3f3d56"/><path d="M140.12,572.27a.5.5,0,0,1-.5-.5.5.5,0,0,1,.5-.5h148.2a.5.5,0,0,1,.5.5.5.5,0,0,1-.5.5Z" transform="translate(-140.12 -241.55)" fill="#3f3d56"/><path d="M140.12,600.98a.5.5,0,0,1-.5-.5.5.5,0,0,1,.5-.5h148.2a.5.5,0,0,1,.5.5.5.5,0,0,1-.5.5Z" transform="translate(-140.12 -241.55)" fill="#3f3d56"/><path d="M140.12,629.69a.5.5,0,0,1-.5-.5.5.5,0,0,1,.5-.5h148.2a.5.5,0,0,1,.5.5.5.5,0,0,1-.5.5Z" transform="translate(-140.12 -241.55)" fill="#3f3d56"/><path d="M140.12,658.4a.5.5,0,0,1-.5-.5.5.5,0,0,1,.5-.5h148.2a.5.5,0,0,1,.5.5.5.5,0,0,1-.5.5Z" transform="translate(-140.12 -241.55)" fill="#3f3d56"/></svg>
