
<svg xmlns="http://www.w3.org/2000/svg" data-name="Layer 1" width="797.5" height="834.5" viewBox="0 0 797.5 834.5" xmlns:xlink="http://www.w3.org/1999/xlink"><title>empty</title><ellipse cx="308.5" cy="780" rx="308.5" ry="54.5" fill="#3f3d56"/><circle cx="496" cy="301.5" r="301.5" fill="#3f3d56"/><circle cx="496" cy="301.5" r="248.89787" opacity="0.05"/><circle cx="496" cy="301.5" r="203.99362" opacity="0.05"/><circle cx="496" cy="301.5" r="146.25957" opacity="0.05"/><path d="M398.42029,361.23224s-23.70394,66.72221-13.16886,90.42615,27.21564,46.52995,27.21564,46.52995S406.3216,365.62186,398.42029,361.23224Z" transform="translate(-201.25 -32.75)" fill="#d0cde1"/><path d="M398.42029,361.23224s-23.70394,66.72221-13.16886,90.42615,27.21564,46.52995,27.21564,46.52995S406.3216,365.62186,398.42029,361.23224Z" transform="translate(-201.25 -32.75)" opacity="0.1"/><path d="M415.10084,515.74682s-1.75585,16.68055-2.63377,17.55847.87792,2.63377,0,5.26754-1.75585,6.14547,0,7.02339-9.65716,78.13521-9.65716,78.13521-28.09339,36.8728-16.68055,94.81576l3.51169,58.82089s27.21564,1.75585,27.21564-7.90132c0,0-1.75585-11.413-1.75585-16.68055s4.38962-5.26754,1.75585-7.90131-2.63377-4.38962-2.63377-4.38962,4.38961-3.51169,3.51169-4.38962,7.90131-63.2105,7.90131-63.2105,9.65716-9.65716,9.65716-14.92471v-5.26754s4.38962-11.413,4.38962-12.29093,23.70394-54.43127,23.70394-54.43127l9.65716,38.62864,10.53509,55.30919s5.26754,50.04163,15.80262,69.356c0,0,18.4364,63.21051,18.4364,61.45466s30.72932-6.14547,29.85139-14.04678-18.4364-118.5197-18.4364-118.5197L533.62054,513.991Z" transform="translate(-201.25 -32.75)" fill="#2f2e41"/><path d="M391.3969,772.97846s-23.70394,46.53-7.90131,48.2858,21.94809,1.75585,28.97148-5.26754c3.83968-3.83968,11.61528-8.99134,17.87566-12.87285a23.117,23.117,0,0,0,10.96893-21.98175c-.463-4.29531-2.06792-7.83444-6.01858-8.16366-10.53508-.87792-22.826-10.53508-22.826-10.53508Z" transform="translate(-201.25 -32.75)" fill="#2f2e41"/><path d="M522.20753,807.21748s-23.70394,46.53-7.90131,48.28581,21.94809,1.75584,28.97148-5.26754c3.83968-3.83969,11.61528-8.99134,17.87566-12.87285a23.117,23.117,0,0,0,10.96893-21.98175c-.463-4.29531-2.06792-7.83444-6.01857-8.16367-10.53509-.87792-22.826-10.53508-22.826-10.53508Z" transform="translate(-201.25 -32.75)" fill="#2f2e41"/><circle cx="295.90488" cy="215.43252" r="36.90462" fill="#ffb8b8"/><path d="M473.43048,260.30832S447.07551,308.81,486.57138,349.891s57.50679,8.94618,57.50679,8.94618-19.68932-48.84123-7.91854-68.53027Z" transform="translate(-201.25 -32.75)" fill="#ffb8b8"/><path d="M513.86726,313.3854h-17.97768c-.22041,0-23.02-2.32,0-16.72h17.87566Z" transform="translate(-201.25 -32.75)" fill="#ffb8b8"/><path d="M475.7,"transform="translate(-201.25 -32.75)" fill="#d0cde1"/><path d="M413.86139,372.81489l-28.97148-20.19224s-32.48318-28.09339-11.413-40.38432S383.59027,305.52,383.59027,305.52s-.87792-14.92471,5.26754-19.31432c0,0,7.90131-12.29093,20.19224-3.51169S409.4718,287.7838,409.4718,287.7838l28.09339,1.75584-8.764,30.8794Z" transform="translate(-201.25 -32.75)" fill="#d0cde1"/><path d="M457.16046,585.55363s-11.87889-25.55187,33.15493-43.99486Z" transform="translate(-201.25 -32.75)" fill="#d0cde1"/><path d="M485.03662,578.3053s-18.17954-31.88556-27.93763-23.62785S457.16046,585.55363,485.03662,578.3053Z" transform="translate(-201.25 -32.75)" fill="#3f3d56"/><path d="M505.22888,784.67461s6.39945-12.79895-3.19972-10.39922-12.79895,10.39922-12.79895,10.39922,4.79959,13.99869,11.99881,9.599S505.22888,784.67461,505.22888,784.67461Z" transform="translate(-201.25 -32.75)" fill="#2f2e41"/><path d="M373.36946,818.86352s6.39944-12.79895-3.19973-10.39921-12.79895,10.39921-12.79895,10.39921,4.79959,13.99869,11.99881,9.599S373.36946,818.86352,373.36946,818.86352Z" transform="translate(-201.25 -32.75)" fill="#2f2e41"/><path d="M654.35888,807.60589l-2.56-28.16008s-7.04-26.88-7.36-26.32-1.6,10.4.32,12.16.16,5.76.16,5.76l9.28,38.72Z" transform="translate(-201.25 -32.75)" fill="#ffb8b8"/><path d="M682.67888,807.60589l-2.56-28.16008s-4.8-29.28-4.8-29.76-8.16,10.72-7.04,13.44,3.36,7.52,3.36,7.52l5.44,35.84Z" transform="translate(-201.25 -32.75)" fill="#ffb8b8"/><path d="M684.27524,595.86736s-.51,14.31776-6.39958,21.60539L673.76634,631.508s-11.83925,22.64463-13.47906,37.95772c-1.53574,14.323-1.22893,136.16664-.92238,143.03228a6.17793,6.17793,0,0,1-6.099,6.40741h-7.81153s-2.02406-9.21346-2.052-15.48248c-.04415-9.65786-.61598-90.53393-.57183-97.621.076-12.3,6.20522-62.69295-4.03733-67.073l-22.687-45.374-2.89114,3.248s-2.19861-2.04019-2.844,8.93809,1.61045,100.92837,1.2323,110.50174c-.10469,2.66571-1.83377,5.37829-4.88152,5.278l-6.14038-.20193-5.56853-8.287s-4.9139,5.08831-6.55371,4.96854-3.04762-184.9729-3.04762-184.9729v-9.4371s9.15371-12.15208,11.58311-13.42745,18.90294-20.3004,30.61578-22.63085c4.3264-.85961,47.49883-5.12168,57.414-1.49222,5.06007,1.85441,33.22187,24.41181,33.22187,24.41181l6.47958,8.4384s-1.59992,8.31864-3.59982,9.03846-4.75978,1.435-3.99982,2.8797,2.79988,7.19925,1.59992,8.99906-3.59983,1.43995-1.59992,3.599S684.27524,595.86736,684.27524,595.86736Z" transform="translate(-201.25 -32.75)" fill="#2f2e41"/><path d="M671.35394,811.1284s-8.06938-.48837-9.07978,1.47888a56.73,56.73,0,0,0-2.40962,6.67884s-6.0491,4.99755-6.0491,9.99511,19.34717,3.99791,21.35751,1.99887,3.999-17.49051,3.999-17.99l-2.49937-1.99886S674.353,812.12828,671.35394,811.1284Z" transform="translate(-201.25 -32.75)" fill="#2f2e41"/><path d="M701.77524,811.1284s-8.06938-.48837-9.07978,1.47888a56.73,56.73,0,0,0-2.40962,6.67884s-6.04909,4.99755-6.04909,9.99511,19.34716,3.99791,21.3575,1.99887,3.999-17.49051,3.999-17.99l-2.49937-1.99886S704.77424,812.12828,701.77524,811.1284Z" transform="translate(-201.25 -32.75)" fill="#2f2e41"/><path d="M694.27561,552.26891a7.99972,7.99972,0,0,0-6.3996-1.19993L657.67644,558.668s-10.39934,2.399-10.39934,10.39934v23.99842s-5.59966,11.19928-3.19981,19.999L643.676,627.46332s-3.19981,11.999,3.19981,21.598,7.99951,9.59941,7.99951,22.39862c0,0,30.04894-2.67677,54.394-.9199,0,0,0-1.7499,3.999-3.59944s2.39989-11.9988,2.39989-11.9988,7.1995-9.599-1.5999-22.39817-10.39935-60.7941-10.39935-60.7941-2.49986-5.15966-1.1999-7.99951S694.27561,552.26891,694.27561,552.26891Z" transform="translate(-201.25 -32.75)" fill="#e6e6e6"/><path d="M677.27583,571.26833l-2.1811-.61877s-3.10158-10.29239,0-11.19455l.67581-6.05525,17.325-2.04771s.74636,9.04736-.93134,13.21821S677.27583,571.26833,677.27583,571.26833Z" transform="translate(-201.25 -32.75)" fill="#046fdf"/><path d="M645.27527,573.86777l4.79976-5.19975s5.59964-1.6999,10.39935,5.19975l7.19951,10.79932s8.7994,10.39935,5.5996,21.998-3.999,22.79832-3.999,22.79832l-15.99894,1.59991s-5.5996-18.79843-6.39955-23.19817S645.27527,573.86777,645.27527,573.86777Z" transform="translate(-201.25 -32.75)" fill="#e6e6e6"/><polygon points="490.23 393.147 497.69 394.887 497.777 393.555 490.23 393.147" opacity="0.2"/><circle cx="679.87521" cy="506.8165" r="3.599" fill="#046fdf"/><circle cx="675.87521" cy="529.8165" r="3.599" fill="#046fdf"/><circle cx="527.73567" cy="437.32534" r="21" fill="#f2f2f2"/><polygon points="488.771 376.177 509.023 357.765 509.023 377.318 491.184 393.337 488.771 376.177" fill="#f2f2f2"/><polygon points="467.673 376.177 447.421 357.765 447.421 377.318 465.26 393.337 467.673 376.177" fill="#f2f2f2"/><path d="M656.87534,552.26891s-.71372-12.10937,5.08672-14.27368-5.69231-18.00871-11.70767-17.31708-7.369,2.41712-7.04489,8.804.69061,11.24111.69061,11.24111.66823-5.19006-.86054-8.27493c0,0,11.188,2.73495,8.416,12.853A17.11021,17.11021,0,0,0,656.87534,552.26891Z" transform="translate(-201.25 -32.75)" fill="#2f2e41"/><circle cx="446.87607" cy="503.08953" r="15.66603" fill="#ffb8b8"/><path d="M644.27562,548.26923s-3.04482-1.52241,0-6.09s12.08793-12.53733,25.55646-6.26507S667.03,563.7479,667.03,563.7479s-5.91627-8.87455-17.59452-5.571a137.1836,137.1836,0,0,0-13.9139,4.61577Z" transform="translate(-201.25 -32.75)" fill="#2f2e41"/><path d="M674.375,610.28584s5.59964-6.7995,4.79968-11.9992,3.1998-19.1984,3.1998-19.1984,19.19841-4.7997,28.03773,3.43479c0,0,.31635,11.13276-5.28329,20.73216s-9.92,37.27793-9.92,37.27793l1.5999,19.1984v51.99484s-.03257,20.03821-10.39934,19.998L662.77643,731.066s-15.19485-1.99952-14.23892-15.19843c0,0,5.12766-5.1162,7.04155-4.79975s19.19846-40.79595,19.19846-40.79595Z" transform="translate(-201.25 -32.75)" fill="#e6e6e6"/><polygon points="446.351 621.775 447.421 620.235 446.826 617.965 444.626 620.715 446.351 621.775" fill="#ffb8b8"/><path d="M663.87588,600.06648l1.39991-10.39935s3.39979-5.99958,7.39951-3.999,5.5996,3.999,5.5996,3.999l2.3999,10.39932-8.7994,3.599Z" transform="translate(-201.25 -32.75)" fill="#046fdf"/><polygon points="449.772 665.712 449.772 690.302 470.928 690.302 466.642 665.712 449.772 665.712" fill="#f2f2f2"/><path d="M651.39945,722.52333s-4.63967-.3465-4.63967,3.14637S650,738.9219,650,738.9219s-1.6999,33.99781,3.599,36.39771a219.139,219.139,0,0,1,20.3985,13.99894,10.53508,10.53508,0,0,0,10.39931,1.59991s5.99959-2.399,3.59981-5.99959-15.999-14.39892-15.999-14.39892l-7.73849-54.15578Z" transform="translate(-201.25 -32.75)" fill="#2f2e41"/><path d="M701.77529,722.52333s4.63966-.3465,4.63966,3.14637-3.23976,13.24658-3.23976,13.24658,1.6999,33.99781-3.599,36.39771a219.139,219.139,0,0,0-20.3985,13.99894,10.53508,10.53508,0,0,1-10.39931,1.59991s-5.99959-2.399-3.59981-5.99959,15.999-14.39892,15.999-14.39892l7.73849-54.15578Z" transform="translate(-201.25 -32.75)" fill="#2f2e41"/><path d="M648.19956,542.66931s-7.1995,10.79931-3.999,16.39889,13.59894,68.39439,13.59894,68.39439l21.598,41.59609,21.998-3.999L689.676,628.4625s-5.599-7.19951-2.399-14.399L698.4753,580.6665s2.399-27.19783-11.999-34.39734S648.19956,542.66931,648.19956,542.66931Z" transform="translate(-201.25 -32.75)" fill="#e6e6e6"/><polygon points="483.675 644.692 487.674 658.691 456.676 669.09 455.076 650.292 451.077 637.893 483.675 644.692" fill="#f2f2f2"/><path d="M696.07526,581.46638l2.3999-8.7994s3.3998-6.7995,7.9995,0,5.5996,14.399,5.5996,14.399,5.9996,20.79847-2.3999,19.19857-7.19952-2.99986-5.5996-10.79936S696.07526,581.46638,696.07526,581.46638Z" transform="translate(-201.25 -32.75)" fill="#046fdf"/><path d="M658.39929,566.66782s-5.93739-1.84839-7.19951,3.999,7.59951,32.79746,7.59951,32.79746,3.199,38.39712,6.799,38.79711,9.999.36681,9.599-2.23314S658.39929,566.66782,658.39929,566.66782Z" transform="translate(-201.25 -32.75)" fill="#e6e6e6"/><polygon points="455.477 397.686 471.876 418.884 455.477 423.284 455.477 397.686" fill="#f2f2f2"/><path d="M701.2753,583.06646l9.999,48.39646s10.399,52.795,6.399,53.59487-12.799-3.1998-12.799-3.1998Z" transform="translate(-201.25 -32.75)" opacity="0.2"/></svg>
