
<svg xmlns="http://www.w3.org/2000/svg" data-name="Layer 1" width="889.07556" height="459.37952" viewBox="0 0 889.07556 459.37952" xmlns:xlink="http://www.w3.org/1999/xlink"><title>learning</title><path d="M444.53778,674.68976c0,9.94112-91,11-203,18-111.84994,6.97388-203-8.05888-203-18s91.01349-29.99388,203-18C353.53778,667.68976,444.53778,664.74864,444.53778,674.68976Z" transform="translate(-155.46222 -220.31024)" fill="#3f3d56"/><path d="M444.53778,674.68976c0,9.94112-91,11-203,18-111.84994,6.97388-203-8.05888-203-18s91.01349-29.99388,203-18C353.53778,667.68976,444.53778,664.74864,444.53778,674.68976Z" transform="translate(-155.46222 -220.31024)" opacity="0.1"/><ellipse cx="289.07556" cy="454.37952" rx="194" ry="5" fill="#3f3d56"/><rect x="226.07556" y="79.37952" width="126" height="242" fill="#2f2e41"/><rect x="322.07556" y="228.37952" width="20" height="132" fill="#f2f2f2"/><rect x="322.07556" y="289.37952" width="20" height="69" fill="#046fdf"/><circle cx="289.07556" cy="155.37952" r="5" fill="#046fdf"/><circle cx="289.07556" cy="178.37952" r="5" fill="#046fdf"/><circle cx="289.07556" cy="201.37952" r="5" fill="#046fdf"/><circle cx="289.07556" cy="224.37952" r="5" fill="#046fdf"/><rect x="226.07556" y="79.37952" width="126" height="242" opacity="0.1"/><rect x="245.07556" y="96.37952" width="88" height="212" fill="#f2f2f2"/><rect x="273.07556" y="128.37952" width="32" height="32" fill="#046fdf"/><line x1="273.07556" y1="192.37952" x2="305.07556" y2="192.37952" fill="none" stroke="#3f3d56" stroke-miterlimit="10"/><line x1="273.07556" y1="207.37952" x2="305.07556" y2="207.37952" fill="none" stroke="#3f3d56" stroke-miterlimit="10"/><line x1="273.07556" y1="222.37952" x2="305.07556" y2="222.37952" fill="none" stroke="#3f3d56" stroke-miterlimit="10"/><line x1="273.07556" y1="237.37952" x2="305.07556" y2="237.37952" fill="none" stroke="#3f3d56" stroke-miterlimit="10"/><line x1="273.07556" y1="252.37952" x2="305.07556" y2="252.37952" fill="none" stroke="#3f3d56" stroke-miterlimit="10"/><line x1="273.07556" y1="267.37952" x2="289.07556" y2="267.37952" fill="none" stroke="#3f3d56" stroke-miterlimit="10"/><line x1="216.88189" y1="177.37952" x2="206.78371" y2="177.37952" fill="none" stroke="#3f3d56" stroke-miterlimit="10"/><line x1="216.88189" y1="197.37952" x2="206.78371" y2="197.37952" fill="none" stroke="#3f3d56" stroke-miterlimit="10"/><line x1="216.88189" y1="217.37952" x2="206.78371" y2="217.37952" fill="none" stroke="#3f3d56" stroke-miterlimit="10"/><line x1="216.88189" y1="237.37952" x2="206.78371" y2="237.37952" fill="none" stroke="#3f3d56" stroke-miterlimit="10"/><circle cx="273.07556" cy="177.37952" r="4" fill="#3f3d56"/><rect x="58.26068" y="295.90411" width="28.20604" height="28.20604" fill="#046fdf"/><rect x="664.26068" y="193.90411" width="28.20604" height="28.20604" fill="#046fdf"/><path d="M847.96222,404.21035h-3.99878V278.03467a57.72169,57.72169,0,0,0-57.72143-57.72143H485.232a57.72169,57.72169,0,0,0-57.72144,57.72143V689.03077A57.72178,57.72178,0,0,0,485.232,746.7522H786.24145a57.72169,57.72169,0,0,0,57.72143-57.72143V463.03029h3.99934Z" transform="translate(-155.46222 -220.31024)" fill="#3f3d56"/><path d="M722.46222,328.70682h26a5,5,0,0,1,5,5v26a5,5,0,0,1-5,5h-26a5,5,0,0,1-5-5v-26A5,5,0,0,1,722.46222,328.70682Z" fill="#046fdf"/><path d="M726.46222,410.70682h26a5,5,0,0,1,5,5v26a5,5,0,0,1-5,5h-26a5,5,0,0,1-5-5v-26A5,5,0,0,1,726.46222,410.70682Z" fill="#046fdf"/><path d="M726.46222,492.70682h26a5,5,0,0,1,5,5v26a5,5,0,0,1-5,5h-26a5,5,0,0,1-5-5v-26A5,5,0,0,1,726.46222,492.70682Z" fill="#046fdf"/><path d="M726.46222,574.70682h26a5,5,0,0,1,5,5v26a5,5,0,0,1-5,5h-26a5,5,0,0,1-5-5v-26A5,5,0,0,1,726.46222,574.70682Z" fill="#046fdf"/><path d="M622.46222,364.70682h26a5,5,0,0,1,5,5v26a5,5,0,0,1-5,5h-26a5,5,0,0,1-5-5v-26A5,5,0,0,1,622.46222,364.70682Z" fill="#e6e6e6"/><path d="M622.46222,446.70682h26a5,5,0,0,1,5,5v26a5,5,0,0,1-5,5h-26a5,5,0,0,1-5-5v-26A5,5,0,0,1,622.46222,446.70682Z" fill="#e6e6e6"/><path d="M622.46222,528.70682h26a5,5,0,0,1,5,5v26a5,5,0,0,1-5,5h-26a5,5,0,0,1-5-5v-26A5,5,0,0,1,622.46222,528.70682Z" fill="#e6e6e6"/><path d="M622.46222,610.70682h26a5,5,0,0,1,5,5v26a5,5,0,0,1-5,5h-26a5,5,0,0,1-5-5v-26A5,5,0,0,1,622.46222,610.70682Z" fill="#e6e6e6"/><path d="M518.46222,364.70682h26a5,5,0,0,1,5,5v26a5,5,0,0,1-5,5h-26a5,5,0,0,1-5-5v-26A5,5,0,0,1,518.46222,364.70682Z" fill="#e6e6e6"/><path d="M518.46222,446.70682h26a5,5,0,0,1,5,5v26a5,5,0,0,1-5,5h-26a5,5,0,0,1-5-5v-26A5,5,0,0,1,518.46222,446.70682Z" fill="#e6e6e6"/><path d="M518.46222,528.70682h26a5,5,0,0,1,5,5v26a5,5,0,0,1-5,5h-26a5,5,0,0,1-5-5v-26A5,5,0,0,1,518.46222,528.70682Z" fill="#e6e6e6"/><path d="M518.46222,610.70682h26a5,5,0,0,1,5,5v26a5,5,0,0,1-5,5h-26a5,5,0,0,1-5-5v-26A5,5,0,0,1,518.46222,610.70682Z" fill="#e6e6e6"/><line x1="492.96222" y1="311.70682" x2="492.96222" y2="699.70682" fill="none" stroke="#3f3d56" stroke-miterlimit="10"/><line x1="596.96222" y1="311.70682" x2="596.96222" y2="699.70682" fill="none" stroke="#3f3d56" stroke-miterlimit="10"/><line x1="700.96222" y1="311.70682" x2="700.96222" y2="699.70682" fill="none" stroke="#3f3d56" stroke-miterlimit="10"/><circle cx="289.96222" cy="447.70682" r="34" fill="#046fdf"/><path d="M573.12064,705.46886l-34.5594-34.55987a57.9422,57.9422,0,0,0,34.55987-57.759l57.759,57.759a57.94219,57.94219,0,0,0-57.759,34.5594Z" transform="translate(-155.46222 -220.31024)" fill="#f2f2f2"/></svg>
